<?xml version="1.0" encoding="utf-8"?>
<!-- Generator: Adobe Illustrator 21.1.0, SVG Export Plug-In . SVG Version: 6.00 Build 0)  -->
<svg version="1.1" xmlns="http://www.w3.org/2000/svg" xmlns:xlink="http://www.w3.org/1999/xlink" x="0px" y="0px"
	 viewBox="60 40 273 91" style="enable-background:new 60 40 273 81;" xml:space="preserve">
<style type="text/css">
	.st0{fill:none;}
	.st1{fill:none;stroke:#000000;stroke-width:0.25;stroke-miterlimit:10;}
	.st2{clip-path:url(#SVGID_2_);}
	.st3{stroke:#000000;stroke-width:0.25;stroke-miterlimit:10;}
	.st4{clip-path:url(#SVGID_4_);}
	.st5{clip-path:url(#SVGID_6_);}
	.st6{clip-path:url(#SVGID_8_);}
	.st7{fill:#E40230;}
	.st8{clip-path:url(#SVGID_10_);}
	.st9{clip-path:url(#SVGID_12_);}
	.st10{fill:none;stroke:#000000;stroke-width:0.5;stroke-linecap:round;stroke-linejoin:bevel;stroke-miterlimit:10;}
	.st11{fill:none;stroke:#000000;stroke-width:0.5;stroke-linecap:round;stroke-linejoin:bevel;}
	.st12{fill:none;stroke:#000000;stroke-linecap:round;stroke-linejoin:bevel;stroke-miterlimit:10;}
	.st13{fill:none;stroke:#000000;stroke-linecap:round;stroke-linejoin:bevel;}
	.st14{fill:none;stroke:#000000;stroke-width:0.5;stroke-linejoin:bevel;stroke-miterlimit:10;}
	.st15{fill:none;stroke:#000000;stroke-width:0.5;stroke-linejoin:bevel;}
	.st16{clip-path:url(#SVGID_14_);}
	.st17{clip-path:url(#SVGID_16_);}
	.st18{clip-path:url(#SVGID_18_);}
	.st19{fill:none;stroke:#000000;stroke-width:0.25;stroke-miterlimit:10;stroke-dasharray:2.0017,2.0017;}
	.st20{fill:none;stroke:#000000;stroke-width:0.25;stroke-miterlimit:10;stroke-dasharray:2.0016,2.0016;}
	.st21{clip-path:url(#SVGID_20_);fill:none;stroke:#000000;stroke-width:0.5;stroke-miterlimit:10;}
	.st22{clip-path:url(#SVGID_22_);fill:none;stroke:#000000;stroke-width:0.75;stroke-miterlimit:10;}
	.st23{clip-path:url(#SVGID_24_);}
	.st24{fill:none;stroke:#000000;stroke-width:0.75;stroke-miterlimit:10;}
	.st25{fill:none;stroke:#000000;stroke-width:0.75;stroke-miterlimit:10;stroke-dasharray:4.037,2.0185;}
	.st26{clip-path:url(#SVGID_26_);fill:none;stroke:#000000;stroke-width:0.75;stroke-miterlimit:10;}
	.st27{fill:none;stroke:#000000;stroke-miterlimit:10;}
	.st28{fill:none;stroke:#000000;stroke-miterlimit:10;stroke-dasharray:4.1049,2.0525;}
	.st29{fill:none;stroke:#000000;stroke-miterlimit:10;stroke-dasharray:4.0231,2.0116;}
	.st30{clip-path:url(#SVGID_28_);fill:none;stroke:#000000;stroke-width:0.75;stroke-miterlimit:10;}
	.st31{fill:#FFFFFF;}
	.st32{fill:none;stroke:#FFFFFF;stroke-miterlimit:10;}
	.st33{fill:none;stroke:#FFFFFF;stroke-miterlimit:10;stroke-dasharray:3.9826,1.9913;}
	.st34{fill:none;stroke:#000000;stroke-miterlimit:10;stroke-dasharray:3.9826,1.9913;}
	.st35{clip-path:url(#SVGID_30_);}
	.st36{clip-path:url(#SVGID_32_);}
	.st37{clip-path:url(#SVGID_34_);}
	.st38{clip-path:url(#SVGID_36_);}
	.st39{clip-path:url(#SVGID_38_);}
	.st40{fill:none;stroke:#000000;stroke-width:2;stroke-miterlimit:10;}
	.st41{clip-path:url(#SVGID_40_);}
	.st42{fill:none;stroke:#000000;stroke-miterlimit:10;stroke-dasharray:4,2;}
	.st43{clip-path:url(#SVGID_42_);}
	.st44{clip-path:url(#SVGID_44_);}
	.st45{fill:#823133;}
	.st46{fill:#A41F35;}
	.st47{fill:#5F2A2B;}
	.st48{fill:#DD0031;}
	.st49{fill:#C3002F;}
	.st50{fill:#EC0044;}
	.st51{fill:#933235;}
	.st52{fill:#582931;}
	.st53{fill:#88354D;}
	.st54{fill:#712D3D;}
	.st55{fill:#8B2332;}
	.st56{fill:#7B303E;}
	.st57{fill:#8F1336;}
	.st58{fill:#7A232E;}
	.st59{fill:#73243D;}
</style>
<g id="Vrstva_1">
	<g>
		<polygon points="80.8,72.7 73.3,72.7 73.3,65.2 68.2,65.2 68.2,72.7 60.7,72.7 60.7,77.8 68.2,77.8 68.2,85.3 73.3,85.3 
			73.3,77.8 80.8,77.8 		"/>
		<rect x="64.1" y="97.2" width="13.8" height="5.1"/>
		<polygon points="109.2,62.6 131.1,88.6 137.7,88.6 104.2,48.7 104.2,88.6 109.2,88.6 		"/>
		<rect x="151.6" y="49.7" width="5.1" height="38.9"/>
		<polygon points="314.9,61.4 326.9,88.6 332.5,88.6 314.9,48.9 297.3,88.6 302.9,88.6 		"/>
		<g>
			<polygon points="247,88.6 241.9,88.6 241.9,118 279.7,118 279.7,112.9 247,112.9 			"/>
			<path d="M219.6,95.6c0,11.2-9.1,20.3-20.3,20.3c-11.2,0-20.3-9.1-20.3-20.3l0-7l-4.8,0v7c0,13.9,11.3,25.2,25.2,25.2
				c13.9,0,25.2-11.3,25.2-25.2l0-7h-4.8L219.6,95.6z"/>
		</g>
	</g>
</g>
</svg>
