<?xml version="1.0" encoding="utf-8"?>
<!-- Generator: Adobe Illustrator 21.1.0, SVG Export Plug-In . SVG Version: 6.00 Build 0)  -->
<svg version="1.1" xmlns="http://www.w3.org/2000/svg" xmlns:xlink="http://www.w3.org/1999/xlink" x="0px" y="0px"
	 viewBox="60 40 273 91" style="enable-background:new 60 40 273 81;" xml:space="preserve">
<g id="Vrstva_1">
	<g>
		<polygon points="80.8,72.7 73.3,72.7 73.3,65.2 68.2,65.2 68.2,72.7 60.7,72.7 60.7,77.8 68.2,77.8 68.2,85.3 73.3,85.3 
			73.3,77.8 80.8,77.8 		"/>
		<rect x="64.1" y="97.2" width="13.8" height="5.1"/>
		<polygon points="109.2,62.6 131.1,88.6 137.7,88.6 104.2,48.7 104.2,88.6 109.2,88.6 		"/>
		<rect x="151.6" y="49.7" width="5.1" height="38.9"/>
		<polygon points="314.9,61.4 326.9,88.6 332.5,88.6 314.9,48.9 297.3,88.6 302.9,88.6 		"/>
		<g>
			<polygon points="247,88.6 241.9,88.6 241.9,118 279.7,118 279.7,112.9 247,112.9 			"/>
			<path d="M219.6,95.6c0,11.2-9.1,20.3-20.3,20.3c-11.2,0-20.3-9.1-20.3-20.3l0-7l-4.8,0v7c0,13.9,11.3,25.2,25.2,25.2
				c13.9,0,25.2-11.3,25.2-25.2l0-7h-4.8L219.6,95.6z"/>
		</g>
	</g>
</g>
</svg>
