<?xml version="1.0" encoding="utf-8"?>
<!-- Generator: Adobe Illustrator 21.1.0, SVG Export Plug-In . SVG Version: 6.00 Build 0)  -->
<svg version="1.1" xmlns="http://www.w3.org/2000/svg" xmlns:xlink="http://www.w3.org/1999/xlink" x="0px" y="0px"
	 viewBox="0 0 351 355" style="enable-background:new 0 0 351 355;" xml:space="preserve">
<style type="text/css">
	.st48{fill:#DD0031;}	
</style>
<g id="Vrstva_1">
	<polygon class="st48" points="135.6,194.6 126.8,194.6 126.8,185.8 120.8,185.8 120.8,194.6 112,194.6 112,200.6 120.8,200.6 120.8,209.4 
		126.8,209.4 126.8,200.6 135.6,200.6 	"/>
	<rect x="116" y="223.4" width="16.2" height="6"/>
	<path d="M207.1,221.5c0,13.2-10.7,23.9-23.9,23.9c-13.2,0-23.9-10.7-23.9-23.9l0-8.2h-5.7v8.2c0,16.3,13.3,29.6,29.6,29.6
		c16.3,0,29.6-13.3,29.6-29.6l0-8.2h-5.7L207.1,221.5z"/>
	<path class="st48" d="M207.1,110c0-13.2-10.7-23.9-23.9-23.9c-13.2,0-23.9,10.7-23.9,23.9l0,103.3h-5.7V110
		c0-16.3,13.3-29.6,29.6-29.6c16.3,0,29.6,13.3,29.6,29.6l0,103.3l-5.7,0L207.1,110z"/>
</g>
<g id="Vrstva_2">
</g>
</svg>
